<?xml version="1.0" encoding="UTF-8" standalone="no"?>
<svg
   xmlns:dc="http://purl.org/dc/elements/1.1/"
   xmlns:cc="http://creativecommons.org/ns#"
   xmlns:rdf="http://www.w3.org/1999/02/22-rdf-syntax-ns#"
   xmlns:svg="http://www.w3.org/2000/svg"
   xmlns="http://www.w3.org/2000/svg"
   xmlns:sodipodi="http://sodipodi.sourceforge.net/DTD/sodipodi-0.dtd"
   xmlns:inkscape="http://www.inkscape.org/namespaces/inkscape"
   id="Layer_1"
   data-name="Layer 1"
   viewBox="0 0 500 500"
   version="1.1"
   sodipodi:docname="Icon3.svg"
   inkscape:version="1.0 (9f2f71dc58, 2020-08-02)">
  <metadata
     id="metadata2102">
    <rdf:RDF>
      <cc:Work
         rdf:about="">
        <dc:format>image/svg+xml</dc:format>
        <dc:type
           rdf:resource="http://purl.org/dc/dcmitype/StillImage" />
      </cc:Work>
    </rdf:RDF>
  </metadata>
  <sodipodi:namedview
     pagecolor="#ffffff"
     bordercolor="#666666"
     borderopacity="1"
     objecttolerance="10"
     gridtolerance="10"
     guidetolerance="10"
     inkscape:pageopacity="0"
     inkscape:pageshadow="2"
     inkscape:window-width="2132"
     inkscape:window-height="1132"
     id="namedview2100"
     showgrid="false"
     inkscape:zoom="2.052"
     inkscape:cx="250"
     inkscape:cy="250"
     inkscape:window-x="386"
     inkscape:window-y="157"
     inkscape:window-maximized="0"
     inkscape:current-layer="Layer_1" />
  <defs
     id="defs2039">
    <style
       id="style2037">.cls-1{fill:#00000000;}.cls-2{fill:#fff;}</style>
  </defs>
  <title
     id="title2041">Icon Layouts</title>
  <g
     id="g2694"
     transform="matrix(2.0119824,0,0,2.0119824,-252.9956,-273.15564)">
    <circle
       class="cls-1"
       cx="250"
       cy="260.01999"
       r="111.83"
       id="circle2043" />
    <path
       class="cls-2"
       d="m 315.1,317 a 3.71,3.71 0 0 1 -3,1.07 q -60.51,0 -121,0 c -2.58,0 -3,-0.42 -3,-3 v -41.88 c 0,-3.19 0.24,-3.42 3.49,-3.42 h 12.2 V 225 c 0,-0.33 0,-0.66 0,-1 0.05,-1.77 0.75,-2.46 2.52,-2.46 h 23.76 V 220 q 0,-12.83 0,-25.66 c 0,-2.37 0.56,-2.94 2.9,-2.94 h 37.32 c 2.31,0 2.85,0.55 2.85,2.83 v 60.19 h 24.96 c 2.15,0 2.68,0.54 2.69,2.73 0,1.73 0,3.47 0,5.2 0,1.47 -0.73,2.27 -1.9,2.25 -1.17,-0.02 -1.86,-0.83 -1.87,-2.28 -0.01,-1.45 0,-2.64 0,-4.05 H 264.8 v 55.89 H 297 v -42.02 c 0,-1.54 0.69,-2.44 1.85,-2.48 1.16,-0.04 1.93,0.89 1.94,2.5 0,4.3 0,8.6 0,12.9 V 287 h 1.39 c 3.43,0 6.86,0 10.29,0 a 2.76,2.76 0 0 1 2.63,1.25 z m -54.27,-2.77 v -56.76 c 0,-2.5 0.52,-3 3.05,-3 h 5.34 v -59.2 h -35.17 v 26.14 h 4.55 v -1.68 c 0,-0.58 0,-1.16 0,-1.73 0.08,-1.33 0.86,-2.17 1.93,-2.15 a 2,2 0 0 1 1.86,2.22 c 0,1.1 0,2.21 0,3.44 h 1.2 c 2.88,0 3.26,0.4 3.26,3.3 V 314.2 Z M 243,278.56 h -35.21 v 8.73 c 3,0 5.88,0 8.77,0 1.75,0 2.6,0.68 2.58,2 -0.02,1.32 -0.87,1.87 -2.54,1.87 h -8.82 V 300 H 243 v -8.8 h -15.81 c -2.05,0 -3,-0.64 -3,-2 0,-1.36 1,-1.9 2.94,-1.9 H 243 Z M 207.73,236.48 H 243 V 225.41 H 207.73 Z M 192,273.62 v 40.56 h 11.74 v -40.56 z m 15.78,30.26 v 10.27 H 243 v -10.27 z m 0,-29.39 H 243 v -8.66 h -35.27 z m 0,-25.33 H 243 v -8.76 h -35.26 z m 35.22,4 h -35.25 v 8.74 H 243 Z m 57.93,37.7 v 23.35 h 10.33 v -23.4 z"
       id="path2045" />
    <path
       class="cls-2"
       d="M 289.06,227.72 H 300 a 2.18,2.18 0 0 1 2.27,1.16 1.8,1.8 0 0 1 -1.06,2.51 4.28,4.28 0 0 1 -1.33,0.19 h -21.6 a 2.31,2.31 0 0 1 -1.31,-0.2 c -0.52,-0.43 -1.21,-1.06 -1.21,-1.61 a 3.06,3.06 0 0 1 1.1,-1.81 c 0.3,-0.27 0.94,-0.23 1.43,-0.23 3.59,-0.02 7.18,-0.01 10.77,-0.01 z"
       id="path2047" />
    <path
       class="cls-2"
       d="m 280.87,292.63 h -9.66 a 2.56,2.56 0 0 1 -1.44,-0.23 c -0.52,-0.43 -1.2,-1.11 -1.17,-1.66 0.03,-0.55 0.67,-1.29 1.21,-1.76 0.31,-0.27 0.95,-0.21 1.44,-0.21 q 9.6,0 19.2,0 c 0.45,0 1,-0.05 1.32,0.19 a 3.66,3.66 0 0 1 1.31,1.72 1.56,1.56 0 0 1 -1.32,1.81 6.12,6.12 0 0 1 -1.34,0.15 z"
       id="path2049" />
    <path
       class="cls-2"
       d="m 280.75,306.59 c 3.22,0 6.44,0 9.67,0 0.48,0 1.12,-0.06 1.43,0.2 0.53,0.47 1.21,1.17 1.2,1.76 -0.01,0.59 -0.73,1.25 -1.29,1.69 -0.32,0.26 -0.94,0.2 -1.43,0.2 h -19.46 c -1.47,-0.06 -2.4,-0.84 -2.37,-2 0.03,-1.16 0.95,-1.87 2.46,-1.88 z"
       id="path2051" />
    <path
       class="cls-2"
       d="m 280.85,301.54 c -3.18,0 -6.36,0 -9.54,0 a 2.79,2.79 0 0 1 -1.56,-0.23 2.86,2.86 0 0 1 -1.16,-1.69 c 0,-0.53 0.54,-1.22 1,-1.65 a 2.29,2.29 0 0 1 1.41,-0.28 q 9.8,0 19.58,0 c 0.45,0 1,0 1.31,0.23 a 3.21,3.21 0 0 1 1.14,1.81 c 0,0.55 -0.69,1.2 -1.22,1.61 a 2.58,2.58 0 0 1 -1.44,0.21 c -3.16,0 -6.37,-0.01 -9.52,-0.01 z"
       id="path2053" />
    <path
       class="cls-2"
       d="m 280.79,274.79 c -3.26,0 -6.53,0 -9.79,0 a 3.25,3.25 0 0 1 -1.92,-0.63 1.78,1.78 0 0 1 0.67,-3 4.9,4.9 0 0 1 1.58,-0.2 h 19.58 c 1.41,0.09 2.26,0.85 2.24,2 -0.02,1.15 -0.91,1.87 -2.32,1.88 -3.35,-0.04 -6.69,-0.05 -10.04,-0.05 z"
       id="path2055" />
    <path
       class="cls-2"
       d="m 280.79,283.71 c -3.22,0 -6.44,0 -9.67,0 a 2.61,2.61 0 0 1 -1.53,-0.3 2.45,2.45 0 0 1 -1,-1.66 3.12,3.12 0 0 1 1.18,-1.68 2.21,2.21 0 0 1 1.31,-0.22 h 19.46 a 5.41,5.41 0 0 1 1,0.09 1.76,1.76 0 0 1 1.6,1.88 1.83,1.83 0 0 1 -1.68,1.85 5.86,5.86 0 0 1 -1.11,0 z"
       id="path2057" />
    <path
       class="cls-2"
       d="m 280.74,265.86 c -3.22,0 -6.44,0 -9.66,0 -0.48,0 -1.12,0 -1.42,-0.25 -0.5,-0.45 -1.12,-1.18 -1.06,-1.73 0.06,-0.55 0.76,-1.24 1.33,-1.67 a 2.71,2.71 0 0 1 1.45,-0.17 h 18.83 c 2,0 2.9,0.6 2.93,1.89 0.03,1.29 -0.93,1.95 -3,1.95 z"
       id="path2059" />
    <path
       class="cls-2"
       d="m 213.77,209.32 c -2.65,0 -5.29,0 -7.93,0 -1.69,0 -2.77,-1.39 -2,-2.65 a 2.62,2.62 0 0 1 1.86,-1.13 c 5.4,-0.09 10.82,-0.08 16.23,0 a 1.91,1.91 0 0 1 2,2 c -0.07,1.09 -0.91,1.79 -2.26,1.8 -2.62,-0.01 -5.26,-0.02 -7.9,-0.02 z"
       id="path2061" />
    <path
       class="cls-2"
       d="m 299.47,235.65 c 2.57,0 5.13,0 7.69,0 1.5,0 2.42,0.74 2.44,1.9 0.02,1.16 -0.91,1.94 -2.4,1.94 q -7.81,0 -15.62,0 c -1.55,0 -2.36,-0.75 -2.34,-2 0.02,-1.25 0.89,-1.86 2.43,-1.87 2.6,0.02 5.2,0.03 7.8,0.03 z"
       id="path2063" />
    <path
       class="cls-2"
       d="m 204.35,211.8 c 2.6,0 5.21,0 7.81,0 1.52,0 2.41,0.72 2.39,1.9 -0.02,1.18 -0.87,1.84 -2.32,1.85 h -15.74 c -1.45,0 -2.31,-0.7 -2.33,-1.84 -0.02,-1.14 0.87,-1.91 2.38,-1.91 2.6,-0.01 5.21,0 7.81,0 z"
       id="path2065" />
    <path
       class="cls-2"
       d="m 253.56,253.53 c 0,0.9 0,1.81 0,2.71 a 1.89,1.89 0 0 1 -1.84,1.95 1.78,1.78 0 0 1 -1.94,-1.81 c -0.09,-1.93 -0.08,-3.87 0,-5.8 a 1.77,1.77 0 0 1 1.85,-1.78 1.89,1.89 0 0 1 1.91,1.88 c 0.07,0.95 0,1.9 0,2.85 z"
       id="path2067" />
    <path
       class="cls-2"
       d="m 253.56,204.15 c 0,0.91 0,1.81 0,2.72 a 1.89,1.89 0 0 1 -1.8,2 1.82,1.82 0 0 1 -2,-1.89 c -0.09,-1.85 -0.08,-3.71 0,-5.56 a 1.93,1.93 0 0 1 2,-2 2,2 0 0 1 1.83,2.1 c 0,0.9 -0.03,1.76 -0.03,2.63 z"
       id="path2069" />
    <path
       class="cls-2"
       d="m 264.7,204.13 c 0,0.91 0.05,1.82 0,2.72 a 1.89,1.89 0 0 1 -1.92,2 1.86,1.86 0 0 1 -1.91,-2 c -0.06,-1.82 -0.06,-3.63 0,-5.44 a 2,2 0 0 1 1.84,-2 2,2 0 0 1 2,2 c 0.07,0.9 0,1.81 0,2.71 z"
       id="path2071" />
    <path
       class="cls-2"
       d="m 253.56,237.08 c 0,0.87 0,1.74 0,2.6 a 2,2 0 0 1 -1.89,2 1.89,1.89 0 0 1 -1.9,-1.9 c -0.08,-1.89 -0.09,-3.79 0,-5.68 a 1.83,1.83 0 0 1 1.92,-1.85 2,2 0 0 1 1.87,2.07 1.92,1.92 0 0 1 0,0.24 v 2.47 z"
       id="path2073" />
    <path
       class="cls-2"
       d="m 253.56,286.49 c 0,0.9 0,1.81 0,2.72 a 1.88,1.88 0 0 1 -1.8,2 1.81,1.81 0 0 1 -2,-1.88 c -0.09,-1.85 -0.08,-3.71 0,-5.56 a 1.94,1.94 0 0 1 2,-2 2,2 0 0 1 1.83,2.11 c 0,0.88 -0.03,1.74 -0.03,2.61 z"
       id="path2075" />
    <path
       class="cls-2"
       d="m 253.56,270 c 0,0.86 0,1.73 0,2.59 a 2,2 0 0 1 -1.85,2.11 2,2 0 0 1 -1.95,-2 c -0.08,-1.85 -0.09,-3.71 0,-5.56 a 1.83,1.83 0 0 1 2,-1.88 2,2 0 0 1 1.8,2 2.09,2.09 0 0 1 0,0.25 z"
       id="path2077" />
    <path
       class="cls-2"
       d="m 260.83,237 c 0,-0.87 0,-1.74 0,-2.6 0.07,-1.32 0.83,-2.13 1.94,-2.12 a 2,2 0 0 1 1.91,2.14 c 0.05,1.73 0.05,3.47 0,5.19 a 1.93,1.93 0 1 1 -3.84,0 c -0.05,-0.85 -0.01,-1.72 -0.01,-2.61 z"
       id="path2079" />
    <path
       class="cls-2"
       d="m 253.56,303 c 0,0.91 0,1.82 0,2.72 a 2,2 0 0 1 -1.91,2 1.93,1.93 0 0 1 -1.88,-1.93 c -0.08,-1.89 -0.09,-3.79 0,-5.67 a 1.78,1.78 0 0 1 1.94,-1.82 1.87,1.87 0 0 1 1.83,1.95 c 0.06,0.92 0.02,1.83 0.02,2.75 z"
       id="path2081" />
    <path
       class="cls-2"
       d="m 264.7,220.62 c 0,0.87 0,1.73 0,2.6 a 1.91,1.91 0 0 1 -2,2 1.89,1.89 0 0 1 -1.85,-2.06 q -0.07,-2.59 0,-5.19 a 2,2 0 0 1 1.93,-2.15 c 1.06,0 1.83,0.87 1.93,2.17 a 1.92,1.92 0 0 1 0,0.24 v 2.35 z"
       id="path2083" />
    <path
       class="cls-2"
       d="m 253.55,220.74 c 0,0.87 0,1.73 0,2.59 a 1.86,1.86 0 0 1 -1.84,1.93 1.77,1.77 0 0 1 -1.93,-1.82 c -0.09,-1.92 -0.07,-3.86 0,-5.79 a 1.79,1.79 0 0 1 1.87,-1.78 1.91,1.91 0 0 1 1.89,1.91 c 0.07,0.98 0.01,1.97 0.01,2.96 z"
       id="path2085" />
    <path
       class="cls-2"
       d="m 242.42,204.14 c 0,0.9 0,1.81 0,2.72 a 1.87,1.87 0 0 1 -1.9,2 1.77,1.77 0 0 1 -1.86,-1.88 c -0.07,-1.89 -0.06,-3.79 0,-5.68 a 1.85,1.85 0 0 1 1.92,-1.84 1.94,1.94 0 0 1 1.83,2 c 0.04,0.86 0.01,1.77 0.01,2.68 z"
       id="path2087" />
    <path
       class="cls-2"
       d="m 264.67,250.69 a 1.91,1.91 0 0 1 -3.81,0 2,2 0 0 1 1.91,-1.88 2,2 0 0 1 1.9,1.88 z"
       id="path2089" />
    <path
       class="cls-2"
       d="m 199.76,281 c 0,0.82 0,1.65 0,2.47 a 1.85,1.85 0 0 1 -1.86,1.77 1.77,1.77 0 0 1 -1.84,-1.76 c -0.07,-1.72 -0.07,-3.45 0,-5.18 a 1.75,1.75 0 0 1 1.88,-1.71 1.85,1.85 0 0 1 1.82,1.82 c 0.04,0.83 0,1.69 0,2.59 z"
       id="path2091" />
    <path
       class="cls-2"
       d="m 199.76,307 c 0,0.82 0,1.65 0,2.46 a 1.87,1.87 0 0 1 -1.85,1.8 1.81,1.81 0 0 1 -1.85,-1.76 c -0.07,-1.73 -0.07,-3.46 0,-5.18 a 1.74,1.74 0 0 1 1.87,-1.72 1.85,1.85 0 0 1 1.83,1.81 c 0.04,0.85 0,1.71 0,2.59 z"
       id="path2093" />
    <path
       class="cls-2"
       d="m 199.76,294 c 0,0.83 0,1.65 0,2.47 a 1.87,1.87 0 0 1 -1.84,1.8 1.75,1.75 0 0 1 -1.86,-1.73 c -0.07,-1.73 -0.07,-3.46 0,-5.18 a 1.8,1.8 0 0 1 1.86,-1.76 1.9,1.9 0 0 1 1.84,1.81 c 0.04,0.81 0,1.68 0,2.59 z"
       id="path2095" />
    <path
       class="cls-2"
       d="m 304.19,299.73 c 0,-0.86 0,-1.73 0,-2.59 a 1.87,1.87 0 0 1 1.9,-1.87 1.81,1.81 0 0 1 1.81,1.81 q 0.08,2.78 0,5.55 a 1.77,1.77 0 0 1 -1.88,1.72 1.8,1.8 0 0 1 -1.82,-1.78 c -0.05,-0.94 -0.01,-1.89 -0.01,-2.84 z"
       id="path2097" />
  </g>
</svg>
