<?xml version="1.0" encoding="UTF-8" standalone="no"?>
<svg
   xmlns:dc="http://purl.org/dc/elements/1.1/"
   xmlns:cc="http://creativecommons.org/ns#"
   xmlns:rdf="http://www.w3.org/1999/02/22-rdf-syntax-ns#"
   xmlns:svg="http://www.w3.org/2000/svg"
   xmlns="http://www.w3.org/2000/svg"
   xmlns:sodipodi="http://sodipodi.sourceforge.net/DTD/sodipodi-0.dtd"
   xmlns:inkscape="http://www.inkscape.org/namespaces/inkscape"
   id="Layer_1"
   data-name="Layer 1"
   viewBox="0 0 500 500"
   version="1.1"
   sodipodi:docname="Icon2.svg"
   inkscape:version="1.0 (9f2f71dc58, 2020-08-02)">
  <metadata
     id="metadata1293">
    <rdf:RDF>
      <cc:Work
         rdf:about="">
        <dc:format>image/svg+xml</dc:format>
        <dc:type
           rdf:resource="http://purl.org/dc/dcmitype/StillImage" />
        <dc:title>Icon Layouts</dc:title>
      </cc:Work>
    </rdf:RDF>
  </metadata>
  <sodipodi:namedview
     pagecolor="#ffffff"
     bordercolor="#666666"
     borderopacity="1"
     objecttolerance="10"
     gridtolerance="10"
     guidetolerance="10"
     inkscape:pageopacity="0"
     inkscape:pageshadow="2"
     inkscape:window-width="1688"
     inkscape:window-height="1139"
     id="namedview1291"
     showgrid="false"
     inkscape:zoom="2.052"
     inkscape:cx="250"
     inkscape:cy="250"
     inkscape:window-x="0"
     inkscape:window-y="27"
     inkscape:window-maximized="0"
     inkscape:current-layer="Layer_1" />
  <defs
     id="defs1268">
    <style
       id="style1266">.cls-1{fill:#00000000;}.cls-2{fill:#fff;}</style>
  </defs>
  <title
     id="title1270">Icon Layouts</title>
  <circle
     class="cls-1"
     cx="250"
     cy="250"
     r="225"
     id="circle1272"
     style="stroke-width:2.11844" />
  <path
     class="cls-2"
     d="m 263.47331,363.92995 a 8.3043028,8.3043028 0 0 1 -5.29611,-9.17286 62.239902,62.239902 0 0 0 0,-8.66444 3.8343847,3.8343847 0 0 0 -1.39818,-2.26674 7.7111383,7.7111383 0 0 0 -11.07946,0 24.531588,24.531588 0 0 1 -5.14782,2.92345 6.8425761,6.8425761 0 0 1 -9.23642,-2.33028 c -5.0419,-8.28312 -9.99906,-16.65098 -14.82911,-25.08239 a 6.5459938,6.5459938 0 0 1 2.69042,-9.13049 c 2.94464,-1.82187 6.07994,-3.38952 9.02458,-5.21138 a 3.0293758,3.0293758 0 0 0 1.29225,-2.11844 c 0.23303,-6.35534 0.19066,-6.35534 -5.55033,-9.533 -4.87242,-2.66924 -9.74484,-5.27493 -14.5749,-7.98654 a 2.4362113,2.4362113 0 0 0 -3.19885,0 2.9234535,2.9234535 0 0 1 -0.80501,0.48724 c -4.10978,1.29225 -5.169,4.10979 -4.61821,8.02891 a 39.233594,39.233594 0 0 1 0,6.35533 6.9061294,6.9061294 0 0 1 -7.05442,7.03324 q -14.44779,0 -28.91677,0 a 6.9061294,6.9061294 0 0 1 -7.01205,-6.84258 c 0,-3.34714 0,-6.69428 0,-10.06261 a 3.2412202,3.2412202 0 0 0 -1.65238,-2.92345 c -3.83439,-3.1353 -7.26627,-2.62688 -10.93118,0.21184 a 28.577818,28.577818 0 0 1 -5.14782,2.92345 6.884945,6.884945 0 0 1 -9.23642,-2.35147 c -5.0419,-8.3043 -9.99906,-16.65097 -14.82911,-25.10357 a 6.5248094,6.5248094 0 0 1 2.71161,-9.10931 c 2.96582,-1.82186 6.07994,-3.38951 9.04576,-5.23256 a 3.3895114,3.3895114 0 0 0 1.27106,-2.11844 c 0.86857,-4.61821 -0.44487,-8.05009 -5.42321,-9.68129 a 22.646173,22.646173 0 0 1 -5.14782,-2.92346 6.5459938,6.5459938 0 0 1 -2.43622,-9.02457 q 7.16035,-12.52001 14.65964,-24.87054 a 6.9061294,6.9061294 0 0 1 9.59656,-2.35147 c 3.02937,1.56764 5.97401,3.2624 8.89746,4.99952 a 3.2624047,3.2624047 0 0 0 3.24122,0 c 4.70295,-1.73712 6.10112,-4.93597 5.35967,-9.55418 a 30.166651,30.166651 0 0 1 0,-5.35967 6.9273138,6.9273138 0 0 1 7.0756,-7.01205 q 14.49016,0 28.93796,0 a 6.884945,6.884945 0 0 1 6.99086,6.86376 c 0,3.49544 0,7.01205 0,10.59223 0,0.72027 0.80501,1.44054 1.2287,2.11844 0,0 0.16948,0 0.21185,0 3.77083,3.30477 7.28744,2.73279 11.33367,0 a 162.39996,162.39996 0 0 1 14.34187,-7.92298 3.0929291,3.0929291 0 0 0 1.65239,-2.71161 c 0.78383,-4.70295 -0.99567,-7.60522 -5.55032,-9.21524 a 24.637511,24.637511 0 0 1 -4.7665,-2.66924 6.6942849,6.6942849 0 0 1 -2.71161,-9.49063 q 7.11797,-12.43527 14.5749,-24.67988 a 6.8637605,6.8637605 0 0 1 9.3847,-2.43621 c 3.02938,1.54647 5.9952,3.24122 8.91866,4.99953 a 3.6013558,3.6013558 0 0 0 3.64372,0 c 4.55466,-1.69475 5.84691,-4.74531 5.14782,-9.21523 a 34.657754,34.657754 0 0 1 0,-6.35534 6.8637605,6.8637605 0 0 1 6.86376,-6.73665 q 14.59609,-0.12711 29.17098,0 a 6.8637605,6.8637605 0 0 1 6.9485,6.88494 c 0,3.66491 0,7.32982 0,10.99473 0,0.72027 0.74146,1.48291 1.27107,2.11845 0.52961,0.63553 0.91093,0.36013 1.2287,0.65671 3.1353,3.0082 6.10112,2.11845 9.19405,-0.14829 a 43.21627,43.21627 0 0 1 5.78335,-3.28359 6.9696827,6.9696827 0 0 1 9.76603,2.83872 q 7.37219,12.13869 14.44779,24.46804 a 6.7154694,6.7154694 0 0 1 -2.77516,9.6601 c -2.83872,1.71594 -5.74098,3.36833 -8.68562,4.91479 -1.14396,0.61435 -1.29225,1.37699 -1.5041,2.56332 a 7.4992939,7.4992939 0 0 0 5.57151,9.4059 26.734771,26.734771 0 0 1 4.95716,2.79634 6.6095472,6.6095472 0 0 1 2.56332,9.17287 q -7.13916,12.54119 -14.65964,24.89172 a 6.8637605,6.8637605 0 0 1 -9.40589,2.39384 c -3.15648,-1.6312 -6.18586,-3.5378 -9.36353,-5.14782 a 3.9614914,3.9614914 0 0 0 -2.75397,0 c -4.57585,1.5041 -6.14349,4.51229 -5.63507,9.34234 a 133.03832,133.03832 0 0 1 0.10592,15.65531 c 0,1.3558 0.63554,1.9066 1.63121,2.71161 3.77083,3.09293 7.24508,2.75398 10.90999,-0.16948 a 27.963469,27.963469 0 0 1 5.169,-2.90227 6.8213916,6.8213916 0 0 1 9.21524,2.30911 q 7.6264,12.41408 14.82911,25.0612 a 6.5883627,6.5883627 0 0 1 -2.66924,9.15168 c -2.90227,1.77949 -5.88928,3.4107 -8.87629,5.0419 a 2.944638,2.944638 0 0 0 -1.61001,2.49976 7.6899539,7.6899539 0 0 0 5.7198,9.57537 23.832502,23.832502 0 0 1 3.72846,2.11845 c 4.72413,2.73279 5.78335,6.35533 3.07174,11.01591 -3.70727,6.35533 -7.4781,12.71067 -11.20657,19.066 -0.76264,1.27107 -1.48291,2.56332 -2.26673,3.83438 a 7.3298183,7.3298183 0 0 1 -10.7617,2.8599 c -2.8599,-1.56764 -5.61388,-3.28358 -8.47378,-4.72413 a 6.1011204,6.1011204 0 0 0 -2.96582,0 c -0.2754,0 -0.52961,0.36014 -0.80501,0.46606 -4.23689,1.29225 -5.19019,4.23689 -4.61821,8.24075 0.23303,1.52528 0,3.1353 0,4.68176 a 8.0712739,8.0712739 0 0 1 -5.27493,8.93984 z m 63.27794,-157.4428 -7.66877,-4.364 a 7.7535072,7.7535072 0 0 1 -4.23689,-8.47378 63.765182,63.765182 0 0 0 0,-11.37604 c -0.33895,-4.23689 0.55079,-6.50363 4.38518,-8.728 2.39384,-1.37698 4.80887,-2.7116 7.37219,-4.23688 l -7.11798,-12.05395 c -2.73279,1.52528 -5.29611,2.92345 -7.81706,4.38518 a 8.1136428,8.1136428 0 0 1 -9.34234,-0.57198 101.68534,101.68534 0 0 0 -10.46511,-5.95283 7.7535072,7.7535072 0 0 1 -5.10546,-7.66877 c 0,-3.00819 0,-6.01639 0,-9.08813 h -14.36305 c 0,3.02938 0,5.91046 0,8.77036 a 7.9865361,7.9865361 0 0 1 -5.46559,8.15601 66.307316,66.307316 0 0 0 -9.85077,5.5927 8.3254873,8.3254873 0 0 1 -9.9355,0.59316 c -2.41503,-1.46173 -4.91479,-2.77516 -7.49929,-4.23689 l -7.09679,12.07514 c 2.81753,1.58883 5.38085,2.987 7.90179,4.46991 a 7.6687695,7.6687695 0 0 1 3.91913,8.09246 73.23463,73.23463 0 0 0 0,11.60908 c 0.31776,4.23689 -0.59317,6.48244 -4.23689,8.47378 -2.5845,1.46172 -5.21138,2.88108 -7.96535,4.38518 l 7.11797,12.03276 c 2.75398,-1.50409 5.42322,-2.8599 8.00772,-4.36399 a 8.4737784,8.4737784 0 0 1 9.95669,0.69908 60.841729,60.841729 0 0 0 9.63892,5.48677 c 3.74965,1.71594 5.78336,4.23689 5.5927,8.30431 -0.12711,2.75398 0,5.52914 0,8.24075 h 14.36305 c 0,-2.77517 0.10592,-5.42322 0,-8.05009 -0.23303,-4.23689 1.75831,-6.77903 5.63506,-8.47378 a 59.316449,59.316449 0 0 0 9.63893,-5.48677 8.4737784,8.4737784 0 0 1 10.14735,-0.52961 c 2.35147,1.41935 4.80887,2.71161 7.32982,4.23689 z m -94.48263,75.28952 c 2.83871,1.56765 5.55032,3.00819 8.21956,4.53347 a 7.647585,7.647585 0 0 1 4.06742,8.21957 65.820074,65.820074 0 0 0 0,11.37604 c 0.33895,4.49111 -0.48724,6.58837 -4.49111,8.87629 -2.37265,1.37698 -4.7665,2.7116 -7.24508,4.23689 l 7.11798,12.05394 c 2.64805,-1.48291 5.21137,-2.88108 7.71114,-4.36399 a 8.2407495,8.2407495 0 0 1 9.55418,0.61435 74.548065,74.548065 0 0 0 10.04143,5.74098 7.9653517,7.9653517 0 0 1 5.42322,8.15601 c -0.12711,2.92346 0,5.8681 0,8.77037 h 14.36305 c 0,-3.05057 0,-5.9952 0,-8.93984 a 7.8594295,7.8594295 0 0 1 5.35967,-7.96535 72.217776,72.217776 0 0 0 10.04142,-5.7198 8.2831184,8.2831184 0 0 1 9.76603,-0.57198 c 2.43621,1.44054 4.91479,2.79634 7.56285,4.23689 l 7.09679,-12.07514 c -2.71161,-1.54646 -5.27493,-2.96582 -7.79588,-4.42755 a 7.7111383,7.7111383 0 0 1 -4.00386,-8.26193 63.383862,63.383862 0 0 0 0.10593,-11.1642 c -0.38132,-4.80887 0.4025,-6.73666 4.72413,-9.19405 l 6.96968,-3.98268 -7.09679,-12.03277 c -2.77516,1.54647 -5.40203,2.98701 -8.00772,4.46992 a 7.9017984,7.9017984 0 0 1 -8.91865,-0.50842 c -3.58017,-2.26674 -7.32982,-4.23689 -11.10065,-6.35534 a 7.5416628,7.5416628 0 0 1 -4.70295,-7.22389 c 0,-2.94464 0,-5.8681 0,-8.91866 h -14.36305 v 8.05009 c 0,4.7665 -1.39818,6.546 -5.84691,8.60089 a 56.541286,56.541286 0 0 0 -9.21523,5.25374 8.4737784,8.4737784 0 0 1 -10.3592,0.69909 c -2.47858,-1.5041 -5.08427,-2.79635 -7.75351,-4.23689 z m -92.85143,-6.96968 c 2.64806,-1.48291 5.21138,-2.88109 7.71114,-4.34282 a 8.2407495,8.2407495 0 0 1 9.533,0.57198 83.085397,83.085397 0 0 0 10.25327,5.84691 7.7958761,7.7958761 0 0 1 5.23256,7.81706 c 0,2.8599 0,5.69862 0,8.47378 h 14.2995 c 0,-2.83871 0,-5.48677 0,-8.13483 -0.21184,-4.13096 1.7795,-6.60954 5.55033,-8.32548 a 61.689107,61.689107 0 0 0 9.63892,-5.46559 8.4737784,8.4737784 0 0 1 10.14735,-0.6779 c 2.52095,1.48291 5.10545,2.81753 7.83824,4.23689 1.24989,-2.11845 2.41503,-4.00386 3.55899,-5.95283 l 3.51662,-6.14349 -4.23689,-2.26674 c -1.31344,-0.74145 -2.64806,-1.44054 -3.94031,-2.11844 a 7.5840317,7.5840317 0 0 1 -4.23689,-8.47378 73.107523,73.107523 0 0 0 0,-11.39723 c -0.31776,-4.23689 0.59317,-6.56718 4.40637,-8.68563 2.52095,-1.44054 5.08427,-2.81753 7.81706,-4.23689 l -7.11797,-12.05394 c -2.90227,1.58883 -5.55033,2.96582 -8.15602,4.44873 a 8.2619339,8.2619339 0 0 1 -9.55418,-0.59317 84.123435,84.123435 0 0 0 -10.25327,-5.82572 7.8594295,7.8594295 0 0 1 -5.23256,-7.81706 c 0.10592,-2.8599 0,-5.7198 0,-8.47378 h -14.36306 v 7.88062 c 0,4.91479 -1.37698,6.65191 -5.95283,8.74917 a 61.117127,61.117127 0 0 0 -9.02457,5.12664 c -4.04623,2.77516 -6.20704,3.07174 -10.59222,0.65672 l -7.2239,-4.02505 -7.09679,12.05395 7.75351,4.40637 a 7.6899539,7.6899539 0 0 1 4.04623,8.24075 65.798889,65.798889 0 0 0 0,11.37604 c 0.33895,4.49111 -0.50843,6.58837 -4.4911,8.87629 -2.37266,1.37699 -4.7665,2.71161 -7.24508,4.13096 z M 258.21957,244.2802 a 30.357311,30.357311 0 0 1 0,-5.38085 7.6687695,7.6687695 0 0 0 -5.50796,-9.66011 3.0505602,3.0505602 0 0 0 -3.00819,0 c -4.97835,2.79635 -9.82959,5.84691 -15.01977,8.11365 -4.38518,1.9066 -6.18586,4.59702 -5.21138,9.06694 a 3.9826758,3.9826758 0 0 0 1.48291,2.47858 c 4.99953,2.88108 10.23209,5.40203 15.10451,8.47378 3.38951,2.11844 6.35534,3.07174 9.63893,0 0.27539,-0.25422 0.805,-0.2754 1.01685,-0.57198 0.55079,-0.72027 1.3558,-1.5041 1.37699,-2.28792 0.21184,-3.49544 0.12711,-6.92732 0.12711,-10.33801 z"
     id="path1274"
     style="stroke-width:2.11844" />
  <path
     class="cls-2"
     d="m 279.8277,166.93579 a 21.036155,21.036155 0 1 1 -21.58695,20.84549 21.332737,21.332737 0 0 1 21.58695,-20.84549 z m 7.05442,21.05734 a 7.1603427,7.1603427 0 1 0 -7.2239,6.92731 7.2450805,7.2450805 0 0 0 7.2239,-6.92731 z"
     id="path1278"
     style="stroke-width:2.11844" />
  <path
     class="cls-2"
     d="m 279.65822,279.23454 a 21.057339,21.057339 0 1 1 -21.43865,20.99378 21.375106,21.375106 0 0 1 21.43865,-20.99378 z m 7.20272,21.03615 a 7.1603427,7.1603427 0 1 0 -7.11798,7.01205 7.266265,7.266265 0 0 0 7.13916,-7.01205 z"
     id="path1280"
     style="stroke-width:2.11844" />
  <path
     class="cls-2"
     d="m 200.80972,244.02599 a 21.502213,21.502213 0 1 1 -21.48103,-20.95142 21.332737,21.332737 0 0 1 21.48103,20.95142 z m -21.41748,-6.90613 a 7.0120516,7.0120516 0 1 0 7.07561,7.0756 7.266265,7.266265 0 0 0 -7.07561,-7.0756 z"
     id="path1282"
     style="stroke-width:2.11844" />
</svg>
