<svg id="Layer_1" data-name="Layer 1" xmlns="http://www.w3.org/2000/svg" viewBox="0 0 500 500"><defs><style>.cls-1{fill:#00000000;}.cls-2{fill:#fff;}</style></defs><title>Icon Layouts</title><circle class="cls-1" cx="250" cy="250" r="106.21"/><path class="cls-2" d="M256.36,303.78a3.92,3.92,0,0,1-2.5-4.33,29.38,29.38,0,0,0,0-4.09,1.81,1.81,0,0,0-.66-1.07,3.64,3.64,0,0,0-5.23,0,11.58,11.58,0,0,1-2.43,1.38,3.23,3.23,0,0,1-4.36-1.1c-2.38-3.91-4.72-7.86-7-11.84a3.09,3.09,0,0,1,1.27-4.31c1.39-.86,2.87-1.6,4.26-2.46a1.43,1.43,0,0,0,.61-1c.11-3,.09-3-2.62-4.5-2.3-1.26-4.6-2.49-6.88-3.77a1.15,1.15,0,0,0-1.51,0,1.38,1.38,0,0,1-.38.23c-1.94.61-2.44,1.94-2.18,3.79a18.52,18.52,0,0,1,0,3,3.26,3.26,0,0,1-3.33,3.32q-6.82,0-13.65,0a3.26,3.26,0,0,1-3.31-3.23c0-1.58,0-3.16,0-4.75a1.53,1.53,0,0,0-.78-1.38c-1.81-1.48-3.43-1.24-5.16.1a13.49,13.49,0,0,1-2.43,1.38,3.25,3.25,0,0,1-4.36-1.11c-2.38-3.92-4.72-7.86-7-11.85a3.08,3.08,0,0,1,1.28-4.3c1.4-.86,2.87-1.6,4.27-2.47a1.6,1.6,0,0,0,.6-1c.41-2.18-.21-3.8-2.56-4.57a10.69,10.69,0,0,1-2.43-1.38,3.09,3.09,0,0,1-1.15-4.26q3.38-5.91,6.92-11.74a3.26,3.26,0,0,1,4.53-1.11c1.43.74,2.82,1.54,4.2,2.36a1.54,1.54,0,0,0,1.53,0c2.22-.82,2.88-2.33,2.53-4.51a14.24,14.24,0,0,1,0-2.53,3.27,3.27,0,0,1,3.34-3.31q6.84,0,13.66,0a3.25,3.25,0,0,1,3.3,3.24c0,1.65,0,3.31,0,5,0,.34.38.68.58,1,0,0,.08,0,.1,0,1.78,1.56,3.44,1.29,5.35,0a76.66,76.66,0,0,1,6.77-3.74,1.46,1.46,0,0,0,.78-1.28c.37-2.22-.47-3.59-2.62-4.35a11.63,11.63,0,0,1-2.25-1.26,3.16,3.16,0,0,1-1.28-4.48q3.36-5.87,6.88-11.65a3.24,3.24,0,0,1,4.43-1.15c1.43.73,2.83,1.53,4.21,2.36a1.7,1.7,0,0,0,1.72,0c2.15-.8,2.76-2.24,2.43-4.35a16.36,16.36,0,0,1,0-3,3.24,3.24,0,0,1,3.24-3.18q6.89-.06,13.77,0a3.24,3.24,0,0,1,3.28,3.25c0,1.73,0,3.46,0,5.19,0,.34.35.7.6,1s.43.17.58.31c1.48,1.42,2.88,1,4.34-.07a20.4,20.4,0,0,1,2.73-1.55A3.29,3.29,0,0,1,287,200q3.48,5.73,6.82,11.55a3.17,3.17,0,0,1-1.31,4.56c-1.34.81-2.71,1.59-4.1,2.32-.54.29-.61.65-.71,1.21a3.54,3.54,0,0,0,2.63,4.44,12.62,12.62,0,0,1,2.34,1.32,3.12,3.12,0,0,1,1.21,4.33q-3.37,5.92-6.92,11.75a3.24,3.24,0,0,1-4.44,1.13c-1.49-.77-2.92-1.67-4.42-2.43a1.87,1.87,0,0,0-1.3,0c-2.16.71-2.9,2.13-2.66,4.41a62.8,62.8,0,0,1,.05,7.39c0,.64.3.9.77,1.28,1.78,1.46,3.42,1.3,5.15-.08a13.2,13.2,0,0,1,2.44-1.37,3.22,3.22,0,0,1,4.35,1.09q3.6,5.86,7,11.83a3.11,3.11,0,0,1-1.26,4.32c-1.37.84-2.78,1.61-4.19,2.38a1.39,1.39,0,0,0-.76,1.18,3.63,3.63,0,0,0,2.7,4.52,11.25,11.25,0,0,1,1.76,1c2.23,1.29,2.73,3,1.45,5.2-1.75,3-3.53,6-5.29,9-.36.6-.7,1.21-1.07,1.81a3.46,3.46,0,0,1-5.08,1.35c-1.35-.74-2.65-1.55-4-2.23a2.88,2.88,0,0,0-1.4,0c-.13,0-.25.17-.38.22-2,.61-2.45,2-2.18,3.89.11.72,0,1.48,0,2.21a3.81,3.81,0,0,1-2.49,4.22Zm29.87-74.32-3.62-2.06a3.66,3.66,0,0,1-2-4,30.1,30.1,0,0,0,0-5.37c-.16-2,.26-3.07,2.07-4.12,1.13-.65,2.27-1.28,3.48-2l-3.36-5.69c-1.29.72-2.5,1.38-3.69,2.07a3.83,3.83,0,0,1-4.41-.27,48,48,0,0,0-4.94-2.81,3.66,3.66,0,0,1-2.41-3.62c0-1.42,0-2.84,0-4.29h-6.78c0,1.43,0,2.79,0,4.14a3.77,3.77,0,0,1-2.58,3.85,31.3,31.3,0,0,0-4.65,2.64,3.93,3.93,0,0,1-4.69.28c-1.14-.69-2.32-1.31-3.54-2l-3.35,5.7c1.33.75,2.54,1.41,3.73,2.11a3.62,3.62,0,0,1,1.85,3.82,34.57,34.57,0,0,0,0,5.48c.15,2-.28,3.06-2,4-1.22.69-2.46,1.36-3.76,2.07l3.36,5.68c1.3-.71,2.56-1.35,3.78-2.06a4,4,0,0,1,4.7.33,28.72,28.72,0,0,0,4.55,2.59c1.77.81,2.73,2,2.64,3.92-.06,1.3,0,2.61,0,3.89h6.78c0-1.31.05-2.56,0-3.8-.11-2,.83-3.2,2.66-4a28,28,0,0,0,4.55-2.59,4,4,0,0,1,4.79-.25c1.11.67,2.27,1.28,3.46,2ZM241.63,265c1.34.74,2.62,1.42,3.88,2.14a3.61,3.61,0,0,1,1.92,3.88,31.07,31.07,0,0,0,0,5.37c.16,2.12-.23,3.11-2.12,4.19-1.12.65-2.25,1.28-3.42,2l3.36,5.69c1.25-.7,2.46-1.36,3.64-2.06a3.89,3.89,0,0,1,4.51.29,35.19,35.19,0,0,0,4.74,2.71,3.76,3.76,0,0,1,2.56,3.85c-.06,1.38,0,2.77,0,4.14h6.78c0-1.44,0-2.83,0-4.22a3.71,3.71,0,0,1,2.53-3.76,34.09,34.09,0,0,0,4.74-2.7,3.91,3.91,0,0,1,4.61-.27c1.15.68,2.32,1.32,3.57,2l3.35-5.7c-1.28-.73-2.49-1.4-3.68-2.09a3.64,3.64,0,0,1-1.89-3.9,29.92,29.92,0,0,0,.05-5.27c-.18-2.27.19-3.18,2.23-4.34l3.29-1.88-3.35-5.68c-1.31.73-2.55,1.41-3.78,2.11a3.73,3.73,0,0,1-4.21-.24c-1.69-1.07-3.46-2-5.24-3a3.56,3.56,0,0,1-2.22-3.41c0-1.39,0-2.77,0-4.21h-6.78v3.8c0,2.25-.66,3.09-2.76,4.06a26.69,26.69,0,0,0-4.35,2.48,4,4,0,0,1-4.89.33c-1.17-.71-2.4-1.32-3.66-2Zm-43.83-3.29c1.25-.7,2.46-1.36,3.64-2.05a3.89,3.89,0,0,1,4.5.27,39.22,39.22,0,0,0,4.84,2.76,3.68,3.68,0,0,1,2.47,3.69c0,1.35,0,2.69,0,4H220c0-1.34,0-2.59,0-3.84-.1-1.95.84-3.12,2.62-3.93a29.12,29.12,0,0,0,4.55-2.58,4,4,0,0,1,4.79-.32c1.19.7,2.41,1.33,3.7,2,.59-1,1.14-1.89,1.68-2.81L239,256l-2-1.07c-.62-.35-1.25-.68-1.86-1a3.58,3.58,0,0,1-2-4,34.51,34.51,0,0,0,0-5.38c-.15-2,.28-3.1,2.08-4.1,1.19-.68,2.4-1.33,3.69-2l-3.36-5.69c-1.37.75-2.62,1.4-3.85,2.1a3.9,3.9,0,0,1-4.51-.28,39.71,39.71,0,0,0-4.84-2.75,3.71,3.71,0,0,1-2.47-3.69c.05-1.35,0-2.7,0-4h-6.78v3.72c0,2.32-.65,3.14-2.81,4.13a28.85,28.85,0,0,0-4.26,2.42c-1.91,1.31-2.93,1.45-5,.31l-3.41-1.9-3.35,5.69,3.66,2.08a3.63,3.63,0,0,1,1.91,3.89,31.06,31.06,0,0,0,0,5.37c.16,2.12-.24,3.11-2.12,4.19-1.12.65-2.25,1.28-3.42,1.95Zm56.08-14.41a14.33,14.33,0,0,1,0-2.54,3.62,3.62,0,0,0-2.6-4.56,1.44,1.44,0,0,0-1.42,0c-2.35,1.32-4.64,2.76-7.09,3.83-2.07.9-2.92,2.17-2.46,4.28a1.88,1.88,0,0,0,.7,1.17c2.36,1.36,4.83,2.55,7.13,4,1.6,1,3,1.45,4.55,0,.13-.12.38-.13.48-.27.26-.34.64-.71.65-1.08C253.92,250.48,253.88,248.86,253.88,247.25Z"/><path class="cls-2" d="M253.88,247.25c0,1.61,0,3.23,0,4.85,0,.37-.39.74-.65,1.08-.1.14-.35.15-.48.27-1.54,1.41-2.95,1-4.55,0-2.3-1.44-4.77-2.63-7.13-4a1.88,1.88,0,0,1-.7-1.17c-.46-2.11.39-3.38,2.46-4.28,2.45-1.07,4.74-2.51,7.09-3.83a1.44,1.44,0,0,1,1.42,0,3.62,3.62,0,0,1,2.6,4.56A14.33,14.33,0,0,0,253.88,247.25Z"/><path class="cls-2" d="M264.08,210.79a9.93,9.93,0,1,1-10.19,9.84A10.07,10.07,0,0,1,264.08,210.79Zm3.33,9.94A3.38,3.38,0,1,0,264,224,3.42,3.42,0,0,0,267.41,220.73Z"/><path class="cls-2" d="M264,263.8a9.94,9.94,0,1,1-10.12,9.91A10.09,10.09,0,0,1,264,263.8Zm3.4,9.93a3.38,3.38,0,1,0-3.36,3.31A3.43,3.43,0,0,0,267.41,273.73Z"/><path class="cls-2" d="M226.78,247.18a10.15,10.15,0,1,1-10.14-9.89A10.07,10.07,0,0,1,226.78,247.18Zm-10.11-3.26a3.31,3.31,0,1,0,3.34,3.34A3.43,3.43,0,0,0,216.67,243.92Z"/><path class="cls-2" d="M267.41,220.73a3.38,3.38,0,1,1-3.37-3.31A3.41,3.41,0,0,1,267.41,220.73Z"/><path class="cls-2" d="M267.41,273.73a3.38,3.38,0,1,1-3.38-3.3A3.42,3.42,0,0,1,267.41,273.73Z"/><path class="cls-2" d="M216.67,243.92a3.31,3.31,0,1,1-3.41,3.27A3.44,3.44,0,0,1,216.67,243.92Z"/></svg>