<svg id="Layer_1" data-name="Layer 1" xmlns="http://www.w3.org/2000/svg" viewBox="0 0 500 500"><defs><style>.cls-1{fill:#ea8f23;}.cls-2{fill:#fff;}</style></defs><title>Icon Layouts</title><circle class="cls-1" cx="250" cy="250" r="110.54"/><path class="cls-2" d="M187.39,198.16a23.66,23.66,0,0,1,1.66-3.39,8.21,8.21,0,0,1,6.88-3.5c1.89,0,3.79,0,5.68,0s2.64.75,2.66,2.61c0,2.84,0,5.69,0,8.53v1.49h99.91c2.87,0,3.46.58,3.46,3.48v53.51c1.34,0,2.56,0,3.78,0,1.74,0,2.49.77,2.49,2.49q0,8,0,16.06c0,1.72-.75,2.47-2.46,2.51L308,282c-.07,0-.14.07-.35.19V289c0,3-.53,3.56-3.49,3.56q-53.49,0-107,0c-4.85,0-8.59-2.4-9.61-6.76,0-.07-.1-.12-.16-.18Zm115.86,62.73V208.3h-99v68.38c0,2.59-.64,3.23-3.18,3.24-1.86,0-3.71-.05-5.56,0a4.08,4.08,0,0,0-3.77,5c.51,2.24,2.1,3.32,4.93,3.32q52.63,0,105.27,0c.43,0,.87,0,1.29-.06V282h-1.54c-10.22,0-20.43-.14-30.64.07a21.56,21.56,0,0,1-11.75-2.77c-3.66-2.12-7.54-3.84-11.33-5.72a2.3,2.3,0,0,1-1.53-2.05,2.25,2.25,0,0,1,1.54-2.16l.44-.23c5-2.5,10-5,15-7.46a7.35,7.35,0,0,1,3.06-.72c11.73-.05,23.47,0,35.21,0ZM191.6,276.24l8.31-.89V195.52h-3c-3.73,0-5.27,1.53-5.27,5.23v75.48Zm109.79-11.06v12.46h8.25V265.18Zm-12.89,0H267.61v4H288.5Zm-20.9,8.37v4.1h20.88v-4.1ZM293,265.16v12.5h4v-12.5ZM263.2,276.37v-9.89l-9.88,4.95Z"/><path class="cls-2" d="M233.6,248.35h-6.15c0,1.24,0,2.46,0,3.68,0,1.75-.74,2.5-2.46,2.51q-6,0-12,0c-1.67,0-2.4-.77-2.41-2.44q0-6,0-12c0-1.65.78-2.4,2.43-2.42,1.23,0,2.45,0,3.75,0v-6.31c-1.1,0-2.2,0-3.29,0-2.23,0-2.89-.67-2.89-2.87,0-3.79,0-7.57,0-11.36,0-1.95.74-2.67,2.69-2.68h11.48c1.94,0,2.66.74,2.68,2.69,0,1.08,0,2.15,0,3.22a1.29,1.29,0,0,0,.11.31h6.19c0-1.13,0-2.26,0-3.39,0-2.12.72-2.83,2.8-2.83h19.77c2,0,2.73.72,2.74,2.75q0,5.75,0,11.49c0,1.89-.71,2.65-2.59,2.65q-10.06,0-20.14,0c-1.82,0-2.53-.76-2.57-2.56,0-1.19,0-2.38,0-3.65h-6.32c0,1.28,0,2.5,0,3.73,0,1.66-.72,2.41-2.38,2.48-1.23,0-2.46,0-3.78,0v6.32c1.32,0,2.59,0,3.85,0a2.1,2.1,0,0,1,2.31,2.29c0,1.23,0,2.46.06,3.7,0,0,0,.06.14.18h6.13c0-1.13,0-2.26,0-3.39,0-2.12.7-2.78,2.84-2.78h19.64c2.15,0,2.82.65,2.83,2.76q0,5.74,0,11.48c0,1.9-.71,2.6-2.62,2.61h-20c-2,0-2.64-.71-2.68-2.7,0-1.07,0-2.14,0-3.21C233.73,248.57,233.67,248.5,233.6,248.35Zm21.2-29.56H238.14V227H254.8Zm-16.71,31.46h16.7V242h-16.7Zm-23.2-31.48V227h8.24v-8.25Zm8.24,31.52V242h-8.22v8.31Z"/><path class="cls-2" d="M294.85,243.93v4.28H265.48V244h4a3.33,3.33,0,0,0-.64-3.26,14.65,14.65,0,0,1-1.23-17.15,14.77,14.77,0,0,1,27.22,5.78,14,14,0,0,1-3.23,11.29,3.55,3.55,0,0,0-.77,3.27Zm-8.51,0a1.22,1.22,0,0,0,.13-.28,3.24,3.24,0,0,0,0-.62,6.07,6.07,0,0,1,1.72-5,9.75,9.75,0,0,0,1.51-11,9.94,9.94,0,0,0-8.35-6.11,10.46,10.46,0,0,0-8.7,17.69,3.82,3.82,0,0,1,1.21,3.09c-.06.72,0,1.45,0,2.18h4.21c0-1.46.07-2.86,0-4.24a3.13,3.13,0,0,0-.75-1.79c-1.59-1.7-3.28-3.3-4.79-4.78l3.05-3.23,4.84,5L285,230l3,3c-1.69,1.67-3.36,3.32-5,5-.27.28-.64.64-.65,1-.07,1.67,0,3.34,0,5Z"/><path class="cls-2" d="M210.65,273.45V269.4h29.42v4.05Z"/><path class="cls-2" d="M210.65,281.86v-4h29.4v4Z"/><path class="cls-2" d="M240.05,265.06h-21V261h21Z"/><path class="cls-2" d="M214.76,261V265h-4.08V261Z"/></svg>