<?xml version="1.0" encoding="UTF-8" standalone="no"?>
<svg
   xmlns:dc="http://purl.org/dc/elements/1.1/"
   xmlns:cc="http://creativecommons.org/ns#"
   xmlns:rdf="http://www.w3.org/1999/02/22-rdf-syntax-ns#"
   xmlns:svg="http://www.w3.org/2000/svg"
   xmlns="http://www.w3.org/2000/svg"
   xmlns:sodipodi="http://sodipodi.sourceforge.net/DTD/sodipodi-0.dtd"
   xmlns:inkscape="http://www.inkscape.org/namespaces/inkscape"
   id="Layer_1"
   data-name="Layer 1"
   viewBox="0 0 500 500"
   version="1.1"
   sodipodi:docname="Icon1.svg"
   inkscape:version="1.0 (9f2f71dc58, 2020-08-02)">
  <metadata
     id="metadata27">
    <rdf:RDF>
      <cc:Work
         rdf:about="">
        <dc:format>image/svg+xml</dc:format>
        <dc:type
           rdf:resource="http://purl.org/dc/dcmitype/StillImage" />
        <dc:title>Icon Layouts</dc:title>
      </cc:Work>
    </rdf:RDF>
  </metadata>
  <sodipodi:namedview
     pagecolor="#ffffff"
     bordercolor="#666666"
     borderopacity="1"
     objecttolerance="10"
     gridtolerance="10"
     guidetolerance="10"
     inkscape:pageopacity="0"
     inkscape:pageshadow="2"
     inkscape:window-width="2253"
     inkscape:window-height="1375"
     id="namedview25"
     showgrid="false"
     inkscape:zoom="2.052"
     inkscape:cx="250"
     inkscape:cy="250"
     inkscape:window-x="0"
     inkscape:window-y="27"
     inkscape:window-maximized="0"
     inkscape:current-layer="Layer_1" />
  <defs
     id="defs4">
    <style
       id="style2">.cls1-1{fill:#00000000;}.cls1-2{fill:#fff;}</style>
  </defs>
  <title
     id="title6">Icon Layouts</title>
  <g
     id="g860"
     transform="matrix(1.5,0,0,1.5,-184.18999,-184.18999)">
    <circle
       class="cls1-1"
       cx="289.45999"
       cy="289.45999"
       r="150"
       id="circle8"
       style="stroke-width:1.35697" />
    <path
       class="cls1-2"
       d="m 204.4998,219.11442 a 32.106025,32.106025 0 0 1 2.25258,-4.60014 11.140763,11.140763 0 0 1 9.33599,-4.74941 c 2.56468,0 5.14293,0 7.70762,0 2.56468,0 3.58241,1.01773 3.60955,3.5417 0,3.85381 0,7.72119 0,11.575 v 2.02189 H 362.9809 c 3.89451,0 4.69513,0.78704 4.69513,4.72227 v 72.61173 c 1.81835,0 3.47385,0 5.12936,0 2.36114,0 3.37887,1.04487 3.37887,3.37886 q 0,10.8558 0,21.79302 c 0,2.334 -1.01773,3.35173 -3.33816,3.40601 l -4.68156,0.0678 c -0.095,0 -0.18998,0.095 -0.47494,0.25783 v 9.241 c 0,4.07092 -0.7192,4.83083 -4.73584,4.83083 q -72.58459,0 -145.19631,0 c -6.58133,0 -11.65642,-3.25674 -13.04053,-9.17315 0,-0.095 -0.1357,-0.16284 -0.21712,-0.24426 z m 157.21911,85.12304 V 232.87415 H 227.3784 v 92.78994 c 0,3.51456 -0.86846,4.38303 -4.31518,4.3966 -2.52397,0 -5.03438,-0.0679 -7.54478,0 a 5.5364573,5.5364573 0 0 0 -5.1158,6.78487 c 0.69206,3.03962 2.84965,4.50516 6.68989,4.50516 q 71.41759,0 142.84874,0 c 0.5835,0 1.18057,0 1.7505,-0.0814 v -8.38611 h -2.08974 c -13.86828,0 -27.723,-0.18997 -41.57771,0.095 a 29.256378,29.256378 0 0 1 -15.94445,-3.75882 c -4.96653,-2.87678 -10.2316,-5.21078 -15.37453,-7.76189 a 3.1210421,3.1210421 0 0 1 -2.07617,-2.7818 3.0531934,3.0531934 0 0 1 2.08974,-2.93107 l 0.59707,-0.3121 c 6.78487,-3.39244 13.56975,-6.78488 20.35462,-10.12303 a 9.9737651,9.9737651 0 0 1 4.15234,-0.97703 c 15.91732,-0.0679 31.8482,0 47.77909,0 z m -151.50624,20.82956 11.27646,-1.20771 v -108.3273 h -4.07093 c -5.06151,0 -7.15125,2.07617 -7.15125,7.09698 v 102.42446 z m 148.98227,-15.00814 v 16.9079 h 11.19504 v -16.9079 z m -17.49141,0 h -28.3472 v 5.4279 h 28.3472 z m -28.36077,11.35788 v 5.56359 h 28.33363 v -5.56359 z m 34.46716,-11.38502 v 16.96218 h 5.4279 v -16.96218 z m -40.43785,15.21169 v -13.42049 l -13.40691,6.71703 z"
       id="path10"
       style="stroke-width:1.35697" />
    <path
       class="cls1-2"
       d="m 267.20561,287.22099 h -8.34539 c 0,1.68265 0,3.33816 0,4.99367 0,2.3747 -1.00416,3.39244 -3.33816,3.406 q -8.14185,0 -16.2837,0 c -2.26615,0 -3.25674,-1.04487 -3.27031,-3.31101 q 0,-8.14185 0,-16.2837 c 0,-2.23901 1.05844,-3.25674 3.29745,-3.28388 1.66908,0 3.32459,0 5.08866,0 v -8.56251 c -1.49268,0 -2.98535,0 -4.46445,0 -3.02606,0 -3.92166,-0.90918 -3.92166,-3.89452 0,-5.14293 0,-10.2723 0,-15.41523 0,-2.64611 1.00416,-3.62313 3.65026,-3.6367 h 15.57807 c 2.63254,0 3.60956,1.00416 3.6367,3.65027 0,1.46553 0,2.91749 0,4.36945 a 1.7504975,1.7504975 0 0 0 0.14926,0.42067 h 8.39968 c 0,-1.53338 0,-3.06677 0,-4.60015 0,-2.87678 0.97702,-3.84024 3.79953,-3.84024 h 26.82739 c 2.71395,0 3.70454,0.97703 3.71811,3.73168 q 0,7.80261 0,15.59165 c 0,2.56468 -0.96345,3.59598 -3.51456,3.59598 q -13.65117,0 -27.32948,0 c -2.46969,0 -3.43314,-1.0313 -3.48742,-3.47386 0,-1.6148 0,-3.2296 0,-4.95296 h -8.57608 c 0,1.73693 0,3.39244 0,5.06152 0,2.25258 -0.97702,3.27031 -3.2296,3.3653 -1.66908,0 -3.33816,0 -5.12937,0 v 8.57608 c 1.79121,0 3.51457,0 5.22436,0 a 2.8496472,2.8496472 0 0 1 3.13461,3.10747 c 0,1.66908 0,3.33816 0.0814,5.02081 0,0 0,0.0814 0.18997,0.24425 h 8.31826 c 0,-1.53338 0,-3.06676 0,-4.60014 0,-2.87679 0.94988,-3.77239 3.85381,-3.77239 h 26.65098 c 2.9175,0 3.82667,0.88203 3.84024,3.74525 q 0,7.78904 0,15.57807 c 0,2.57825 -0.96345,3.52814 -3.55527,3.54171 h -27.1395 c -2.71395,0 -3.58241,-0.96346 -3.63669,-3.66384 0,-1.45196 0,-2.90392 0,-4.35589 -0.0407,-0.0543 -0.12213,-0.14926 -0.21712,-0.35281 z m 28.76787,-40.11218 h -22.6072 v 11.14077 h 22.6072 z m -22.67505,42.69043 h 22.66148 V 278.6042 h -22.66148 z m -31.48182,-42.71757 v 11.16791 h 11.18148 v -11.19504 z m 11.18148,42.77185 V 278.6042 h -11.15434 v 11.27646 z"
       id="path12"
       style="stroke-width:1.35697" />
    <path
       class="cls1-2"
       d="m 350.32032,281.22316 v 5.80785 h -39.85435 v -5.71286 h 5.4279 a 4.5187262,4.5187262 0 0 0 -0.86846,-4.42374 19.879681,19.879681 0 0 1 -1.66908,-23.27212 20.042518,20.042518 0 0 1 36.93685,7.84332 18.997648,18.997648 0 0 1 -4.38303,15.32024 4.8172607,4.8172607 0 0 0 -1.04487,4.43731 z m -11.54786,0 a 1.6555093,1.6555093 0 0 0 0.17641,-0.37995 4.3965985,4.3965985 0 0 0 0,-0.84133 8.2368373,8.2368373 0 0 1 2.334,-6.78487 13.230505,13.230505 0 0 0 2.04903,-14.92672 13.48833,13.48833 0 0 0 -11.33074,-8.29112 14.193957,14.193957 0 0 0 -11.80568,24.00489 5.1836439,5.1836439 0 0 1 1.64194,4.19305 c -0.0814,0.97702 0,1.96761 0,2.9582 h 5.71286 c 0,-1.98118 0.095,-3.88094 0,-5.75357 a 4.2473312,4.2473312 0 0 0 -1.01773,-2.42899 c -2.15759,-2.30685 -4.45088,-4.47801 -6.49991,-6.48633 l 4.13878,-4.38303 6.56775,6.78487 6.21495,-6.56776 4.07092,4.07093 c -2.29328,2.26614 -4.55943,4.50515 -6.78487,6.78487 -0.36638,0.37995 -0.86847,0.86846 -0.88203,1.35698 -0.095,2.26614 0,4.53229 0,6.78487 z"
       id="path14"
       style="stroke-width:1.35697" />
    <path
       class="cls1-2"
       d="m 236.06304,321.28106 v -5.49575 h 39.9222 v 5.49575 z"
       id="path16"
       style="stroke-width:1.35697" />
    <path
       class="cls1-2"
       d="m 236.06304,332.69322 v -5.4279 h 39.89506 v 5.4279 z"
       id="path18"
       style="stroke-width:1.35697" />
    <path
       class="cls1-2"
       d="m 275.9581,309.89604 h -28.49647 v -5.50932 h 28.49647 z"
       id="path20"
       style="stroke-width:1.35697" />
    <path
       class="cls1-2"
       d="m 241.64021,304.38672 v 5.4279 h -5.53646 v -5.4279 z"
       id="path22"
       style="stroke-width:1.35697" />
  </g>
</svg>
