<svg id="Layer_1" data-name="Layer 1" xmlns="http://www.w3.org/2000/svg" viewBox="0 0 500 500"><defs><style>.cls-1{fill:#ea8f23;}.cls-2{fill:#fff;}</style></defs><title>Icon Layouts</title><circle class="cls-1" cx="250" cy="260.02" r="111.83"/><path class="cls-2" d="M315.1,317a3.71,3.71,0,0,1-3,1.07q-60.51,0-121,0c-2.58,0-3-.42-3-3V273.19c0-3.19.24-3.42,3.49-3.42h12.2V225c0-.33,0-.66,0-1,.05-1.77.75-2.46,2.52-2.46h23.76V220q0-12.83,0-25.66c0-2.37.56-2.94,2.9-2.94h37.32c2.31,0,2.85.55,2.85,2.83v60.19H298.1c2.15,0,2.68.54,2.69,2.73,0,1.73,0,3.47,0,5.2,0,1.47-.73,2.27-1.9,2.25s-1.86-.83-1.87-2.28,0-2.64,0-4.05H264.8v55.89H297V272.14c0-1.54.69-2.44,1.85-2.48s1.93.89,1.94,2.5c0,4.3,0,8.6,0,12.9V287h1.39c3.43,0,6.86,0,10.29,0a2.76,2.76,0,0,1,2.63,1.25Zm-54.27-2.77V257.47c0-2.5.52-3,3.05-3h5.34V195.27H234.05v26.14h4.55v-1.68c0-.58,0-1.16,0-1.73.08-1.33.86-2.17,1.93-2.15a2,2,0,0,1,1.86,2.22c0,1.1,0,2.21,0,3.44h1.2c2.88,0,3.26.4,3.26,3.3V314.2ZM243,278.56H207.79v8.73c3,0,5.88,0,8.77,0,1.75,0,2.6.68,2.58,2s-.87,1.87-2.54,1.87h-8.82V300H243v-8.8H227.19c-2.05,0-3-.64-3-2s1-1.9,2.94-1.9H243Zm-35.27-42.08H243V225.41H207.73ZM192,273.62v40.56h11.74V273.62Zm15.78,30.26v10.27H243V303.88Zm0-29.39H243v-8.66H207.73Zm0-25.33H243V240.4H207.74Zm35.22,4H207.75v8.74H243Zm57.93,37.7v23.35h10.33V290.81Z"/><path class="cls-2" d="M289.06,227.72H300a2.18,2.18,0,0,1,2.27,1.16,1.8,1.8,0,0,1-1.06,2.51,4.28,4.28,0,0,1-1.33.19H278.28a2.31,2.31,0,0,1-1.31-.2c-.52-.43-1.21-1.06-1.21-1.61a3.06,3.06,0,0,1,1.1-1.81c.3-.27.94-.23,1.43-.23C281.88,227.71,285.47,227.72,289.06,227.72Z"/><path class="cls-2" d="M280.87,292.63h-9.66a2.56,2.56,0,0,1-1.44-.23c-.52-.43-1.2-1.11-1.17-1.66s.67-1.29,1.21-1.76c.31-.27.95-.21,1.44-.21q9.6,0,19.2,0c.45,0,1-.05,1.32.19a3.66,3.66,0,0,1,1.31,1.72,1.56,1.56,0,0,1-1.32,1.81,6.12,6.12,0,0,1-1.34.15Z"/><path class="cls-2" d="M280.75,306.59c3.22,0,6.44,0,9.67,0,.48,0,1.12-.06,1.43.2.53.47,1.21,1.17,1.2,1.76s-.73,1.25-1.29,1.69c-.32.26-.94.2-1.43.2H270.87c-1.47-.06-2.4-.84-2.37-2s.95-1.87,2.46-1.88Z"/><path class="cls-2" d="M280.85,301.54c-3.18,0-6.36,0-9.54,0a2.79,2.79,0,0,1-1.56-.23,2.86,2.86,0,0,1-1.16-1.69c0-.53.54-1.22,1-1.65a2.29,2.29,0,0,1,1.41-.28q9.8,0,19.58,0c.45,0,1,0,1.31.23a3.21,3.21,0,0,1,1.14,1.81c0,.55-.69,1.2-1.22,1.61a2.58,2.58,0,0,1-1.44.21C287.21,301.55,284,301.54,280.85,301.54Z"/><path class="cls-2" d="M280.79,274.79c-3.26,0-6.53,0-9.79,0a3.25,3.25,0,0,1-1.92-.63,1.78,1.78,0,0,1,.67-3,4.9,4.9,0,0,1,1.58-.2h19.58c1.41.09,2.26.85,2.24,2s-.91,1.87-2.32,1.88C287.48,274.8,284.14,274.79,280.79,274.79Z"/><path class="cls-2" d="M280.79,283.71c-3.22,0-6.44,0-9.67,0a2.61,2.61,0,0,1-1.53-.3,2.45,2.45,0,0,1-1-1.66,3.12,3.12,0,0,1,1.18-1.68,2.21,2.21,0,0,1,1.31-.22h19.46a5.41,5.41,0,0,1,1,.09,1.76,1.76,0,0,1,1.6,1.88,1.83,1.83,0,0,1-1.68,1.85,5.86,5.86,0,0,1-1.11,0Z"/><path class="cls-2" d="M280.74,265.86c-3.22,0-6.44,0-9.66,0-.48,0-1.12,0-1.42-.25-.5-.45-1.12-1.18-1.06-1.73s.76-1.24,1.33-1.67a2.71,2.71,0,0,1,1.45-.17h18.83c2,0,2.9.6,2.93,1.89s-.93,1.95-3,1.95Z"/><path class="cls-2" d="M213.77,209.32c-2.65,0-5.29,0-7.93,0-1.69,0-2.77-1.39-2-2.65a2.62,2.62,0,0,1,1.86-1.13c5.4-.09,10.82-.08,16.23,0a1.91,1.91,0,0,1,2,2c-.07,1.09-.91,1.79-2.26,1.8C219.05,209.33,216.41,209.32,213.77,209.32Z"/><path class="cls-2" d="M299.47,235.65c2.57,0,5.13,0,7.69,0,1.5,0,2.42.74,2.44,1.9s-.91,1.94-2.4,1.94q-7.81,0-15.62,0c-1.55,0-2.36-.75-2.34-2s.89-1.86,2.43-1.87C294.27,235.64,296.87,235.65,299.47,235.65Z"/><path class="cls-2" d="M204.35,211.8c2.6,0,5.21,0,7.81,0,1.52,0,2.41.72,2.39,1.9s-.87,1.84-2.32,1.85H196.49c-1.45,0-2.31-.7-2.33-1.84s.87-1.91,2.38-1.91C199.14,211.79,201.75,211.8,204.35,211.8Z"/><path class="cls-2" d="M253.56,253.53c0,.9,0,1.81,0,2.71a1.89,1.89,0,0,1-1.84,1.95,1.78,1.78,0,0,1-1.94-1.81c-.09-1.93-.08-3.87,0-5.8a1.77,1.77,0,0,1,1.85-1.78,1.89,1.89,0,0,1,1.91,1.88c.07.95,0,1.9,0,2.85Z"/><path class="cls-2" d="M253.56,204.15c0,.91,0,1.81,0,2.72a1.89,1.89,0,0,1-1.8,2,1.82,1.82,0,0,1-2-1.89c-.09-1.85-.08-3.71,0-5.56a1.93,1.93,0,0,1,2-2,2,2,0,0,1,1.83,2.1C253.59,202.42,253.56,203.28,253.56,204.15Z"/><path class="cls-2" d="M264.7,204.13c0,.91.05,1.82,0,2.72a1.89,1.89,0,0,1-1.92,2,1.86,1.86,0,0,1-1.91-2c-.06-1.82-.06-3.63,0-5.44a2,2,0,0,1,1.84-2,2,2,0,0,1,2,2c.07.9,0,1.81,0,2.71Z"/><path class="cls-2" d="M253.56,237.08c0,.87,0,1.74,0,2.6a2,2,0,0,1-1.89,2,1.89,1.89,0,0,1-1.9-1.9c-.08-1.89-.09-3.79,0-5.68a1.83,1.83,0,0,1,1.92-1.85,2,2,0,0,1,1.87,2.07,1.92,1.92,0,0,1,0,.24v2.47Z"/><path class="cls-2" d="M253.56,286.49c0,.9,0,1.81,0,2.72a1.88,1.88,0,0,1-1.8,2,1.81,1.81,0,0,1-2-1.88c-.09-1.85-.08-3.71,0-5.56a1.94,1.94,0,0,1,2-2,2,2,0,0,1,1.83,2.11C253.59,284.76,253.56,285.62,253.56,286.49Z"/><path class="cls-2" d="M253.56,270c0,.86,0,1.73,0,2.59a2,2,0,0,1-1.85,2.11,2,2,0,0,1-1.95-2c-.08-1.85-.09-3.71,0-5.56a1.83,1.83,0,0,1,2-1.88,2,2,0,0,1,1.8,2,2.09,2.09,0,0,1,0,.25Z"/><path class="cls-2" d="M260.83,237c0-.87,0-1.74,0-2.6.07-1.32.83-2.13,1.94-2.12a2,2,0,0,1,1.91,2.14c.05,1.73.05,3.47,0,5.19a1.93,1.93,0,1,1-3.84,0C260.79,238.76,260.83,237.89,260.83,237Z"/><path class="cls-2" d="M253.56,303c0,.91,0,1.82,0,2.72a2,2,0,0,1-1.91,2,1.93,1.93,0,0,1-1.88-1.93c-.08-1.89-.09-3.79,0-5.67a1.78,1.78,0,0,1,1.94-1.82,1.87,1.87,0,0,1,1.83,1.95C253.6,301.17,253.56,302.08,253.56,303Z"/><path class="cls-2" d="M264.7,220.62c0,.87,0,1.73,0,2.6a1.91,1.91,0,0,1-2,2,1.89,1.89,0,0,1-1.85-2.06q-.07-2.59,0-5.19a2,2,0,0,1,1.93-2.15c1.06,0,1.83.87,1.93,2.17a1.92,1.92,0,0,1,0,.24v2.35Z"/><path class="cls-2" d="M253.55,220.74c0,.87,0,1.73,0,2.59a1.86,1.86,0,0,1-1.84,1.93,1.77,1.77,0,0,1-1.93-1.82c-.09-1.92-.07-3.86,0-5.79a1.79,1.79,0,0,1,1.87-1.78,1.91,1.91,0,0,1,1.89,1.91C253.61,218.76,253.55,219.75,253.55,220.74Z"/><path class="cls-2" d="M242.42,204.14c0,.9,0,1.81,0,2.72a1.87,1.87,0,0,1-1.9,2,1.77,1.77,0,0,1-1.86-1.88c-.07-1.89-.06-3.79,0-5.68a1.85,1.85,0,0,1,1.92-1.84,1.94,1.94,0,0,1,1.83,2C242.45,202.32,242.42,203.23,242.42,204.14Z"/><path class="cls-2" d="M264.67,250.69a1.91,1.91,0,0,1-3.81,0,2,2,0,0,1,1.91-1.88A2,2,0,0,1,264.67,250.69Z"/><path class="cls-2" d="M199.76,281c0,.82,0,1.65,0,2.47a1.85,1.85,0,0,1-1.86,1.77,1.77,1.77,0,0,1-1.84-1.76c-.07-1.72-.07-3.45,0-5.18a1.75,1.75,0,0,1,1.88-1.71,1.85,1.85,0,0,1,1.82,1.82C199.8,279.24,199.76,280.1,199.76,281Z"/><path class="cls-2" d="M199.76,307c0,.82,0,1.65,0,2.46a1.87,1.87,0,0,1-1.85,1.8,1.81,1.81,0,0,1-1.85-1.76c-.07-1.73-.07-3.46,0-5.18a1.74,1.74,0,0,1,1.87-1.72,1.85,1.85,0,0,1,1.83,1.81C199.8,305.26,199.76,306.12,199.76,307Z"/><path class="cls-2" d="M199.76,294c0,.83,0,1.65,0,2.47a1.87,1.87,0,0,1-1.84,1.8,1.75,1.75,0,0,1-1.86-1.73c-.07-1.73-.07-3.46,0-5.18a1.8,1.8,0,0,1,1.86-1.76,1.9,1.9,0,0,1,1.84,1.81C199.8,292.22,199.76,293.09,199.76,294Z"/><path class="cls-2" d="M304.19,299.73c0-.86,0-1.73,0-2.59a1.87,1.87,0,0,1,1.9-1.87,1.81,1.81,0,0,1,1.81,1.81q.08,2.78,0,5.55a1.77,1.77,0,0,1-1.88,1.72,1.8,1.8,0,0,1-1.82-1.78C304.15,301.63,304.19,300.68,304.19,299.73Z"/></svg>